HIERARCHY
ROOT Hips
{
  OFFSET 0 89.5177 0.535
  CHANNELS 6 Xposition Yposition Zposition Zrotation Xrotation Yrotation
  JOINT Spine
  {
    OFFSET 12.0259 -0.162855 1.69034e-005
    CHANNELS 3 Zrotation Xrotation Yrotation
    JOINT Spine1
    {
      OFFSET 15.3169 -0.0121922 0
      CHANNELS 3 Zrotation Xrotation Yrotation
      JOINT Spine2
      {
        OFFSET 15.3176 -0.0121908 0
        CHANNELS 3 Zrotation Xrotation Yrotation
        JOINT Neck
        {
          OFFSET 19.9142 1.56338 0
          CHANNELS 3 Zrotation Xrotation Yrotation
          JOINT Head
          {
            OFFSET 6.92651 0 0
            CHANNELS 3 Zrotation Xrotation Yrotation
            End Site
            {
              OFFSET 20.7666 0 0
            }
          }
          JOINT LeftShoulder
          {
            OFFSET -6.20654 0.708824 7.28219
            CHANNELS 3 Zrotation Xrotation Yrotation
            JOINT LeftArm
            {
              OFFSET 14.108 0 -1.52588e-005
              CHANNELS 3 Zrotation Xrotation Yrotation
              JOINT LeftForeArm
              {
                OFFSET 28.5802 0 0
                CHANNELS 3 Zrotation Xrotation Yrotation
                JOINT LeftHand
                {
                  OFFSET 27.092 0 0
                  CHANNELS 3 Zrotation Xrotation Yrotation
                  End Site
                  {
                    OFFSET 9.55928 -0.186424 0.145352
                  }
                }
              }
            }
          }
          JOINT RightShoulder
          {
            OFFSET -6.20654 0.708866 -7.28218
            CHANNELS 3 Zrotation Xrotation Yrotation
            JOINT RightArm
            {
              OFFSET 14.108 0 1.52588e-005
              CHANNELS 3 Zrotation Xrotation Yrotation
              JOINT RightForeArm
              {
                OFFSET 28.5802 0 0
                CHANNELS 3 Zrotation Xrotation Yrotation
                JOINT RightHand
                {
                  OFFSET 27.092 0 0
                  CHANNELS 3 Zrotation Xrotation Yrotation
                  End Site
                  {
                    OFFSET 9.55929 -0.186417 -0.145354
                  }
                }
              }
            }
          }
        }
      }
    }
  }
  JOINT LeftUpLeg
  {
    OFFSET 0.005 -0.535 8.837
    CHANNELS 3 Zrotation Xrotation Yrotation
    JOINT LeftLeg
    {
      OFFSET 39.9035 0 0
      CHANNELS 3 Zrotation Xrotation Yrotation
      JOINT LeftFoot
      {
        OFFSET 39.6689 0 0
        CHANNELS 3 Zrotation Xrotation Yrotation
        JOINT LeftToe
        {
          OFFSET 10.1624 13.6296 0
          CHANNELS 3 Zrotation Xrotation Yrotation
          End Site
          {
            OFFSET 8.38147 0 0
          }
        }
      }
    }
  }
  JOINT RightUpLeg
  {
    OFFSET 0.005 -0.535 -8.837
    CHANNELS 3 Zrotation Xrotation Yrotation
    JOINT RightLeg
    {
      OFFSET 39.9035 0 0
      CHANNELS 3 Zrotation Xrotation Yrotation
      JOINT RightFoot
      {
        OFFSET 39.6689 0 0
        CHANNELS 3 Zrotation Xrotation Yrotation
        JOINT RightToe
        {
          OFFSET 10.1624 13.6296 0
          CHANNELS 3 Zrotation Xrotation Yrotation
          End Site
          {
            OFFSET 8.38147 0 0
          }
        }
      }
    }
  }
}
MOTION
Frames:	19
Frame Time:	0.0333333
361.365 87.6955 56.2862 61.5065 65.4191 31.286 3.89322 -2.77905 -0.745306 7.76384 -5.60167 -1.30193 7.76384 -5.60167 -1.30194 -8.3051e-012 -9.0191e-006 -5.27751e-005 1.99918 -42.0395 10.5883 -178.984 -3.38072 -73.2592 -2.67111 6.93873 57.9205 -47.4667 0 3.18055e-015 -69.3353 -42.9785 -75.4443 -176.41 11.3353 72.2983 4.9428 -1.84135 -62.4427 -75.0503 3.18055e-015 -0 -43.9802 40.9008 48.4704 12.0443 7.93334 173.445 -20.5053 -1.59028e-015 -0 18.3271 4.86796 -10.1721 90 2.98177e-015 3.18055e-015 -13.423 -8.83482 168.95 -56.3469 -3.18056e-015 -0 4.31158 -1.77739 3.63243 90 0 3.18055e-015 
361.536 87.6889 58.1212 60.722 66.6928 31.6726 3.83428 -3.02047 -0.66679 7.64924 -6.07818 -1.13176 7.64924 -6.07819 -1.13177 -8.3043e-012 -9.0191e-006 -5.27751e-005 2.62705 -42.1884 11.0968 -179.035 -3.25107 -73.4568 -3.41528 5.61967 57.5723 -47.9728 0 -3.18055e-015 -69.6366 -43.5032 -76.2609 -176.293 11.5189 72.0271 5.43597 -2.51661 -62.9124 -74.8294 3.18055e-015 -0 -44.0532 41.0198 48.8171 13.1731 7.56417 173.602 -19.6733 0 7.95139e-016 19.0918 5.33539 -11.2009 90 -3.97569e-016 -3.18055e-015 -14.6184 -10.3635 171.35 -53.0262 -6.36111e-015 -6.36111e-015 8.59902 -4.65936 9.62599 90 9.54166e-015 -9.54166e-015 
361.576 87.6169 60.0471 58.8607 68.0848 33.0357 3.84318 -3.30648 -0.576861 7.67219 -6.64363 -0.932226 7.67218 -6.64363 -0.932235 -8.30828e-012 -9.0191e-006 -5.27751e-005 2.8983 -42.2431 11.622 -179.06 -3.19985 -73.6217 -4.26029 4.04601 57.3862 -48.7237 0 -6.36111e-015 -69.981 -43.6559 -76.8261 -176.174 11.7398 71.8036 5.97456 -3.16019 -63.2181 -74.6241 -3.18055e-015 -3.18055e-015 -43.8728 41.3157 48.5907 14.3078 6.66308 173.946 -19.3291 -1.59028e-015 -7.95139e-016 19.7412 5.58622 -11.7735 90 -2.78299e-015 -3.18055e-015 -14.3658 -12.9267 173.829 -46.7457 6.36111e-015 4.77083e-015 10.602 -5.6694 11.8191 90 -2.38542e-015 3.18055e-015 
361.528 87.4549 62.0831 56.3044 69.4884 35.2261 3.88997 -3.56924 -0.515397 7.77042 -7.16468 -0.788632 7.77042 -7.16468 -0.788641 -8.30669e-012 -9.0191e-006 -5.27751e-005 2.74828 -42.4925 12.2357 -179.118 -3.04216 -73.8145 -5.31067 2.33888 57.379 -49.6231 -3.18055e-015 3.18055e-015 -70.4555 -43.566 -77.434 -176.008 12.056 71.5233 6.5233 -3.6349 -63.3044 -74.3266 0 -6.36111e-015 -43.8681 41.2997 48.4726 15.3551 5.12051 174.216 -19.5611 -1.59028e-015 -0 20.7193 5.74902 -12.1651 90 -1.78906e-015 3.18055e-015 -13.0553 -16.5092 176.199 -38.3625 -6.36111e-015 -4.77083e-015 11.0701 -4.72358 9.90645 90 6.75868e-015 -0 
361.462 87.1869 64.292 54.2554 70.6756 37.4693 3.89185 -3.7547 -0.554886 7.77233 -7.53786 -0.855109 7.77232 -7.53786 -0.855118 -8.30907e-012 -9.0191e-006 -5.27751e-005 2.22495 -42.8019 12.7249 -179.181 -2.85454 -73.9913 -6.60203 0.740941 57.4968 -50.5023 0 -3.18055e-015 -70.5226 -43.4124 -77.4378 -175.89 12.29 71.3485 7.37793 -3.96408 -63.3322 -73.9601 3.18055e-015 -0 -43.6656 41.6869 48.4325 16.4603 3.96088 173.956 -19.6891 0 7.95139e-016 20.9801 5.62081 -11.9266 90 -4.37326e-015 4.77083e-015 -11.3991 -21.0065 178.05 -29.4388 1.59028e-014 3.37934e-015 10.9582 -2.04387 4.40982 90 7.95139e-016 3.18055e-015 
361.348 86.862 66.6999 53.1708 71.4642 39.0421 3.83173 -3.84534 -0.658925 7.64496 -7.72554 -1.06164 7.64496 -7.72554 -1.06165 -8.3043e-012 -9.0191e-006 -5.27751e-005 1.68045 -42.9801 13.1462 -179.229 -2.7212 -74.1707 -7.95424 -0.507711 57.8088 -51.2633 -3.18055e-015 -3.18055e-015 -70.4548 -43.5991 -77.4273 -175.829 12.3617 71.1902 8.34975 -4.24088 -63.1403 -73.4426 -3.18055e-015 -3.18055e-015 -43.5153 41.7732 48.2327 17.8221 3.57646 173.586 -19.702 -1.59028e-015 -0 21.5708 6.22618 -13.2531 90 3.97569e-016 -1.59028e-015 -9.58946 -26.0985 179.676 -21.1573 -3.18056e-015 3.97569e-015 9.76587 0.860092 -1.51229 90 -7.95139e-016 9.54166e-015 
361.186 86.5481 69.295 52.9239 72.0713 39.6047 3.70185 -3.93808 -0.692796 7.3821 -7.91206 -1.1325 7.3821 -7.91206 -1.13251 -8.30987e-012 -9.0191e-006 -5.27751e-005 1.09176 -42.7561 13.1473 -179.22 -2.73777 -74.0827 -9.13591 -1.18856 58.1413 -51.8431 0 -0 -70.0367 -43.6966 -76.7949 -175.855 12.3245 71.248 8.84278 -4.46674 -62.7069 -72.8027 0 -9.54166e-015 -43.2709 41.5582 47.8833 19.1509 3.36999 173.408 -19.7646 1.59028e-015 -7.95139e-016 21.7758 6.83329 -14.5858 90 5.1684e-015 3.18055e-015 -8.60054 -30.9954 -179.009 -16.7705 3.18056e-015 -7.95139e-016 9.2686 2.01923 -3.85156 90 -1.59028e-015 3.18055e-015 
361.037 86.261 72.0137 54.6947 72.5898 38.1136 3.44898 -3.98263 -0.65 6.87757 -7.99655 -1.06172 6.87757 -7.99655 -1.06173 -8.30669e-012 -9.0191e-006 -5.27751e-005 0.24432 -42.3821 12.5593 -179.234 -2.65873 -73.9161 -9.68643 -1.44732 58.9859 -52.1935 -1.27222e-014 -3.18055e-015 -69.2699 -43.8623 -75.6458 -175.854 12.4492 71.4154 8.901 -4.34435 -61.9936 -72.3567 3.18055e-015 -0 -42.94 41.5236 47.7379 19.8825 3.44362 173.138 -20.2279 1.59028e-015 -0 21.3814 7.20584 -15.4111 90 -3.97569e-015 -3.18055e-015 -9.42167 -32.1471 -178.486 -17.9114 -6.36111e-015 -4.77083e-015 11.2792 1.53001 -2.79395 90 -1.59028e-015 -6.36111e-015 
360.792 86.0352 74.9203 57.2483 72.5462 35.348 3.23227 -3.98756 -0.476143 6.45481 -7.99509 -0.728039 6.45481 -7.99509 -0.728048 -8.30987e-012 -9.0191e-006 -5.27751e-005 -0.998419 -41.7747 11.5882 -179.238 -2.62185 -73.7934 -9.68956 -1.4034 60.3446 -52.1016 0 -6.36111e-015 -68.2233 -43.5463 -73.8874 -175.941 12.3479 71.6426 8.91089 -3.83976 -61.0915 -72.2948 3.18055e-015 9.54166e-015 -42.2346 41.7198 47.2638 20.6038 3.86898 173.137 -21.1812 0 -7.95139e-016 20.5426 7.43609 -15.9189 90 7.95139e-016 -0 -9.95537 -27.8459 -177.486 -21.2535 3.18056e-015 -3.18056e-015 13.3855 0.985471 -1.65318 90 -3.18055e-015 -1.27222e-014 
360.381 85.8925 78.0969 58.413 72.3502 33.6763 3.10212 -4.07899 -0.234866 6.21117 -8.16423 -0.248246 6.21117 -8.16423 -0.248255 -8.3051e-012 -9.0191e-006 -5.27751e-005 -2.37057 -41.0774 10.6508 -179.314 -2.35147 -73.7223 -9.17698 -0.718263 61.8133 -51.7785 3.18055e-015 -0 -67.0216 -43.1256 -71.9245 -176.017 12.2355 71.812 8.51857 -2.97817 -60.1897 -72.3638 0 9.54166e-015 -42.755 41.4257 47.8251 21.1585 4.30808 173.513 -23.1914 0 -0 18.7295 7.62906 -16.3155 90 3.18055e-015 -3.18055e-015 -9.26962 -21.7407 -176.076 -23.6485 0 1.88845e-015 14.4601 1.1776 -2.0688 90 7.95139e-016 9.54166e-015 
359.924 85.9348 81.5091 58.1541 72.7802 33.5831 2.93409 -4.32176 -0.00265927 5.89324 -8.63747 0.218342 5.89324 -8.63747 0.218333 -8.30788e-012 -9.0191e-006 -5.27751e-005 -3.34726 -40.6757 10.0924 -179.45 -1.8719 -73.6303 -8.72856 0.707615 63.1002 -50.8342 9.54166e-015 9.54166e-015 -65.5081 -42.8832 -69.4984 -175.944 12.438 71.7788 8.07598 -1.62633 -59.4587 -72.3819 0 -6.36111e-015 -42.7361 41.4309 47.7562 20.6322 4.78725 174.278 -26.7812 0 -1.59028e-015 15.534 8.33961 -17.8071 90 2.38542e-015 -3.18055e-015 -8.31408 -19.6811 -175.766 -25.2842 -6.36111e-015 1.19271e-015 13.8728 2.28087 -4.38534 90 -1.59028e-015 3.18055e-015 
359.495 86.2298 84.8821 56.5739 73.2431 34.9129 2.82642 -4.53258 0.193498 5.69503 -9.04949 0.614809 5.69503 -9.04949 0.614799 -8.30669e-012 -9.0191e-006 -5.27751e-005 -3.83035 -40.9112 10.0265 -179.572 -1.46009 -73.6519 -8.53673 1.95267 64.309 -48.7865 -3.18055e-015 6.36111e-015 -63.4018 -42.9139 -66.524 -175.827 12.7625 71.7211 8.04148 -0.0424699 -59.4281 -72.2232 6.36111e-015 1.27222e-014 -43.5382 41.069 48.6301 18.6615 6.48078 175.691 -32.2239 0 7.95139e-016 9.62942 10.0088 -21.3938 90 5.1684e-015 3.57812e-015 -6.56454 -20.747 -176.407 -26.4935 1.90833e-014 1.59028e-015 14.8309 1.65015 -3.09771 90 -1.59028e-015 6.36111e-015 
359.05 86.5455 87.9578 55.1989 73.0033 36.1003 2.85105 -4.47461 0.319167 5.75349 -8.92711 0.866072 5.75349 -8.92711 0.866063 -8.30748e-012 -9.0191e-006 -5.27751e-005 -4.27222 -41.8867 10.275 -179.749 -0.876391 -74.0125 -8.16184 2.77 65.356 -46.2971 3.18055e-015 -6.36111e-015 -61.1908 -43.6341 -64.1399 -175.831 12.7942 71.7807 9.035 1.25026 -60.3536 -72.4632 -6.36111e-015 -3.18055e-015 -44.4981 40.7182 49.6878 15.3148 8.91219 177.788 -39.0099 -3.97569e-016 3.97569e-016 0.953132 12.4351 -26.7957 90 -2.38542e-015 -7.15625e-015 -4.69087 -21.7174 -177.26 -27.8458 0 3.18056e-015 16.2503 0.444297 -0.636113 90 3.97569e-016 3.18055e-015 
358.64 86.8709 90.7306 54.8022 72.0689 35.8731 3.03867 -4.16142 0.486688 6.137 -8.29039 1.19941 6.137 -8.29039 1.1994 -8.30669e-012 -9.0191e-006 -5.27751e-005 -5.02918 -43.1042 10.6486 -179.879 -0.431667 -74.3261 -7.79123 3.21896 65.7323 -44.457 -6.36111e-015 -6.36111e-015 -59.8209 -44.6152 -63.3309 -176.024 12.3107 71.9453 10.212 2.09748 -61.7471 -73.0159 0 3.18055e-015 -46.1312 40.4784 51.6764 10.9038 11.4131 -179.342 -46.9014 0 7.95139e-016 -7.71926 14.2765 -31.0089 90 -1.59028e-015 1.59028e-015 -2.25107 -22.2214 -177.462 -28.3406 -3.18056e-015 -1.59028e-015 17.1855 -0.886508 2.07357 90 -3.57812e-015 6.36111e-015 
358.334 87.2189 93.3739 54.6095 70.8333 35.6728 3.29156 -3.8193 0.55631 6.64223 -7.59952 1.3366 6.64223 -7.59952 1.33659 -8.30947e-012 -9.0191e-006 -5.27751e-005 -5.70926 -43.9994 11.1099 -179.852 -0.522267 -74.1273 -7.21665 3.51308 65.108 -43.3766 0 3.18055e-015 -59.7496 -44.7469 -63.5472 -176.191 11.7698 71.9236 9.71949 2.807 -62.7296 -72.9587 -6.36111e-015 -3.18055e-015 -47.3948 40.0259 53.0471 6.07727 13.6759 -176.718 -54.8244 3.97569e-016 -1.98785e-016 -13.1342 13.2211 -28.2228 90 3.18055e-015 7.95139e-015 0.534905 -21.7745 -177.573 -27.9282 3.18056e-015 1.59028e-015 17.5243 -1.66704 3.65249 90 1.19271e-015 -3.18055e-015 
358.183 87.6896 95.9095 55.7289 69.3613 34.555 3.45689 -3.46343 0.529647 6.96472 -6.88785 1.27157 6.96472 -6.88785 1.27156 -8.30987e-012 -9.0191e-006 -5.27751e-005 -5.821 -44.2263 11.1966 -179.728 -0.93363 -73.7266 -5.84713 3.87891 64.1637 -42.8391 3.18055e-015 3.18055e-015 -60.4357 -44.6138 -64.3406 -176.294 11.4922 71.9909 7.19349 3.33714 -63.2535 -72.3155 0 -1.59028e-014 -47.5592 39.8785 53.3238 1.19428 16.2442 -174.955 -61.4666 1.09487e-016 -9.31027e-016 -11.4827 7.53007 -15.4297 90 1.59028e-015 3.18055e-015 3.42504 -20.863 -177.903 -26.2058 -3.18056e-015 7.95139e-016 17.4922 -2.30645 4.95921 90 0 -6.36111e-015 
358.141 88.2615 98.3754 58.686 67.2433 31.9689 3.53587 -3.01651 0.434449 7.10925 -5.99981 1.05697 7.10925 -5.99981 1.05696 -8.30549e-012 -9.0191e-006 -5.27751e-005 -5.62578 -43.9746 10.8698 -179.539 -1.53064 -73.2286 -3.93977 4.40268 63.0983 -42.438 -3.18055e-015 3.18055e-015 -61.6435 -44.5221 -65.826 -176.381 11.2278 72.0048 3.34101 3.51185 -63.0543 -71.8848 6.36111e-015 -9.54166e-015 -46.137 40.0351 51.7855 -2.62334 18.5868 -174.132 -63.2511 -8.19987e-016 2.73329e-016 -10.2734 2.16478 -4.3437 90 0 -3.97569e-016 6.13563 -19.1742 -178.621 -23.5919 6.36111e-015 3.97569e-015 16.9703 -2.96461 6.30213 90 3.97569e-016 -0 
358.241 88.7928 100.787 62.3399 64.8485 28.844 3.52896 -2.5496 0.315268 7.08237 -5.0744 0.788495 7.08237 -5.0744 0.788486 -8.30788e-012 -9.0191e-006 -5.27751e-005 -5.37385 -43.4934 10.0959 -179.352 -2.11199 -72.93 -1.59357 4.97407 62.251 -41.8278 -9.54166e-015 -0 -62.9195 -44.7366 -67.7287 -176.525 10.9658 72.294 -1.40426 3.10573 -62.6334 -71.8499 -6.36111e-015 -9.54166e-015 -45.1078 40.5036 50.8702 -5.63796 19.7468 -174.043 -61.5713 0 5.96354e-016 -8.30214 -0.588657 1.22003 90 -1.78906e-015 -1.98785e-016 8.56808 -17.4528 -179.707 -20.4662 0 -0 16.5159 -3.78663 7.98808 90 0 -0 
358.516 89.1999 103.195 65.8022 62.6626 26.0726 3.46974 -2.17165 0.188885 6.95408 -4.32736 0.50973 6.95408 -4.32736 0.509721 -8.30708e-012 -9.0191e-006 -5.27751e-005 -5.35216 -42.9064 9.0708 -179.177 -2.62763 -72.6052 0.823095 5.57321 61.3695 -40.8835 -6.36111e-015 -6.36111e-015 -63.7555 -44.7577 -68.8134 -176.715 10.724 72.8572 -6.47139 2.39748 -62.1809 -72.1933 1.59028e-015 -0 -44.3869 40.7643 50.154 -7.78962 18.8277 -175.133 -57.3279 0 -7.95139e-016 -4.56565 -1.05967 2.16622 90 -7.95139e-016 7.95139e-016 10.6644 -16.201 178.866 -17.076 6.36111e-015 -1.59028e-015 16.116 -4.58995 9.63765 90 -1.98785e-015 -6.36111e-015 
